<svg width="1440" height="1024" viewBox="0 0 1440 1024" fill="none" xmlns="http://www.w3.org/2000/svg">
<g clip-path="url(#clip0_101_198)">
<rect width="1440" height="1024" fill="white"/>
<rect width="1440" height="143" fill="#D9D9D9"/>
<path d="M655.785 92H648.285V79.1875H637.211V92H629.711V62.918H637.211V73.5625H648.285V62.918H655.785V92ZM684.262 92H663.227V62.918H684.262V68.543H670.688V73.5625H683.285V79.1875H670.688V86.375H684.262V92ZM717.445 92H709.691L707.68 86.1211H696.898L694.887 92H687.328L698.07 62.918H706.703L717.445 92ZM705.863 80.7891L702.289 70.3594L698.715 80.7891H705.863ZM749.105 77.4883C749.105 80.1966 748.487 82.625 747.25 84.7734C746.013 86.9089 744.451 88.5495 742.562 89.6953C741.143 90.5547 739.587 91.1536 737.895 91.4922C736.202 91.8307 734.197 92 731.879 92H721.625V62.918H732.172C734.542 62.918 736.586 63.1198 738.305 63.5234C740.023 63.9141 741.469 64.474 742.641 65.2031C744.646 66.4271 746.221 68.0807 747.367 70.1641C748.526 72.2344 749.105 74.6758 749.105 77.4883ZM741.352 77.4297C741.352 75.5156 741 73.8815 740.297 72.5273C739.607 71.1602 738.507 70.0924 736.996 69.3242C736.228 68.9466 735.44 68.6927 734.633 68.5625C733.839 68.4193 732.634 68.3477 731.02 68.3477H729.125V86.5508H731.02C732.803 86.5508 734.112 86.4727 734.945 86.3164C735.779 86.1471 736.592 85.8477 737.387 85.418C738.754 84.6367 739.757 83.5951 740.395 82.293C741.033 80.9779 741.352 79.3568 741.352 77.4297ZM775.863 92H754.828V62.918H775.863V68.543H762.289V73.5625H774.887V79.1875H762.289V86.375H775.863V92ZM798.48 71.8242C798.48 71.0951 798.331 70.4701 798.031 69.9492C797.732 69.4284 797.217 69.0182 796.488 68.7188C795.98 68.5104 795.388 68.3867 794.711 68.3477C794.034 68.2956 793.246 68.2695 792.348 68.2695H789.633V76.1016H791.938C793.135 76.1016 794.138 76.043 794.945 75.9258C795.753 75.8086 796.43 75.5417 796.977 75.125C797.497 74.7214 797.875 74.2786 798.109 73.7969C798.357 73.3021 798.48 72.6445 798.48 71.8242ZM810.18 92H801.02L793.09 81.3359H789.633V92H782.172V62.918H794.75C796.469 62.918 797.947 63.0156 799.184 63.2109C800.421 63.4062 801.579 63.8294 802.66 64.4805C803.754 65.1315 804.62 65.9779 805.258 67.0195C805.909 68.0482 806.234 69.3438 806.234 70.9062C806.234 73.0547 805.733 74.806 804.73 76.1602C803.741 77.5143 802.322 78.6406 800.473 79.5391L810.18 92Z" fill="black"/>
<rect x="19" y="160" width="364" height="705" fill="#D9D9D9"/>
<path d="M94.9922 502.859C94.9922 505.724 93.7747 508.055 91.3398 509.852C88.918 511.635 85.6237 512.527 81.457 512.527C79.0482 512.527 76.9453 512.319 75.1484 511.902C73.3646 511.473 71.6914 510.932 70.1289 510.281V503.309H70.9492C72.4987 504.546 74.2305 505.496 76.1445 506.16C78.0716 506.824 79.9206 507.156 81.6914 507.156C82.1471 507.156 82.7461 507.117 83.4883 507.039C84.2305 506.961 84.8359 506.831 85.3047 506.648C85.8776 506.414 86.3464 506.121 86.7109 505.77C87.0885 505.418 87.2773 504.897 87.2773 504.207C87.2773 503.569 87.0039 503.022 86.457 502.566C85.9232 502.098 85.1354 501.74 84.0938 501.492C83 501.232 81.8411 500.991 80.6172 500.77C79.4062 500.535 78.2669 500.242 77.1992 499.891C74.7513 499.096 72.987 498.022 71.9062 496.668C70.8385 495.301 70.3047 493.608 70.3047 491.59C70.3047 488.882 71.5156 486.674 73.9375 484.969C76.3724 483.25 79.4974 482.391 83.3125 482.391C85.2266 482.391 87.1146 482.579 88.9766 482.957C90.8516 483.322 92.4727 483.784 93.8398 484.344V491.043H93.0391C91.8672 490.105 90.4284 489.324 88.7227 488.699C87.0299 488.061 85.2982 487.742 83.5273 487.742C82.9023 487.742 82.2773 487.788 81.6523 487.879C81.0404 487.957 80.4479 488.113 79.875 488.348C79.3672 488.543 78.931 488.842 78.5664 489.246C78.2018 489.637 78.0195 490.086 78.0195 490.594C78.0195 491.362 78.3125 491.954 78.8984 492.371C79.4844 492.775 80.5911 493.146 82.2188 493.484C83.2865 493.706 84.3086 493.921 85.2852 494.129C86.2747 494.337 87.3359 494.624 88.4688 494.988C90.6953 495.717 92.3359 496.714 93.3906 497.977C94.4583 499.227 94.9922 500.854 94.9922 502.859ZM115.871 512H98.8398V506.844H103.605V488.074H98.8398V482.918H115.871V488.074H111.105V506.844H115.871V512ZM149.465 497.488C149.465 500.197 148.846 502.625 147.609 504.773C146.372 506.909 144.81 508.549 142.922 509.695C141.503 510.555 139.947 511.154 138.254 511.492C136.561 511.831 134.556 512 132.238 512H121.984V482.918H132.531C134.901 482.918 136.945 483.12 138.664 483.523C140.383 483.914 141.828 484.474 143 485.203C145.005 486.427 146.581 488.081 147.727 490.164C148.885 492.234 149.465 494.676 149.465 497.488ZM141.711 497.43C141.711 495.516 141.359 493.882 140.656 492.527C139.966 491.16 138.866 490.092 137.355 489.324C136.587 488.947 135.799 488.693 134.992 488.562C134.198 488.419 132.993 488.348 131.379 488.348H129.484V506.551H131.379C133.163 506.551 134.471 506.473 135.305 506.316C136.138 506.147 136.952 505.848 137.746 505.418C139.113 504.637 140.116 503.595 140.754 502.293C141.392 500.978 141.711 499.357 141.711 497.43ZM176.223 512H155.188V482.918H176.223V488.543H162.648V493.562H175.246V499.188H162.648V506.375H176.223V512ZM207.414 503.094C207.414 504.5 207.128 505.757 206.555 506.863C205.995 507.97 205.22 508.888 204.23 509.617C203.085 510.477 201.822 511.089 200.441 511.453C199.074 511.818 197.336 512 195.227 512H182.531V482.918H193.82C196.164 482.918 197.876 482.996 198.957 483.152C200.051 483.309 201.132 483.654 202.199 484.188C203.306 484.747 204.126 485.503 204.66 486.453C205.207 487.391 205.48 488.465 205.48 489.676C205.48 491.082 205.109 492.326 204.367 493.406C203.625 494.474 202.577 495.307 201.223 495.906V496.062C203.124 496.44 204.628 497.221 205.734 498.406C206.854 499.591 207.414 501.154 207.414 503.094ZM197.805 491.141C197.805 490.659 197.681 490.177 197.434 489.695C197.199 489.214 196.776 488.855 196.164 488.621C195.617 488.413 194.934 488.302 194.113 488.289C193.306 488.263 192.167 488.25 190.695 488.25H189.992V494.402H191.164C192.349 494.402 193.358 494.383 194.191 494.344C195.025 494.305 195.682 494.174 196.164 493.953C196.841 493.654 197.284 493.27 197.492 492.801C197.701 492.319 197.805 491.766 197.805 491.141ZM199.641 502.977C199.641 502.052 199.458 501.342 199.094 500.848C198.742 500.34 198.137 499.962 197.277 499.715C196.691 499.546 195.884 499.454 194.855 499.441C193.827 499.428 192.753 499.422 191.633 499.422H189.992V506.668H190.539C192.648 506.668 194.159 506.661 195.07 506.648C195.982 506.635 196.822 506.466 197.59 506.141C198.371 505.815 198.905 505.385 199.191 504.852C199.491 504.305 199.641 503.68 199.641 502.977ZM239.875 512H232.121L230.109 506.121H219.328L217.316 512H209.758L220.5 482.918H229.133L239.875 512ZM228.293 500.789L224.719 490.359L221.145 500.789H228.293ZM260.363 491.824C260.363 491.095 260.214 490.47 259.914 489.949C259.615 489.428 259.1 489.018 258.371 488.719C257.863 488.51 257.271 488.387 256.594 488.348C255.917 488.296 255.129 488.27 254.23 488.27H251.516V496.102H253.82C255.018 496.102 256.021 496.043 256.828 495.926C257.635 495.809 258.312 495.542 258.859 495.125C259.38 494.721 259.758 494.279 259.992 493.797C260.24 493.302 260.363 492.645 260.363 491.824ZM272.062 512H262.902L254.973 501.336H251.516V512H244.055V482.918H256.633C258.352 482.918 259.829 483.016 261.066 483.211C262.303 483.406 263.462 483.829 264.543 484.48C265.637 485.132 266.503 485.978 267.141 487.02C267.792 488.048 268.117 489.344 268.117 490.906C268.117 493.055 267.616 494.806 266.613 496.16C265.624 497.514 264.204 498.641 262.355 499.539L272.062 512Z" fill="black"/>
<rect x="412" y="160" width="1009" height="705" fill="#D9D9D9"/>
<path d="M875.199 514H867.738V494.527L862.348 507.164H857.172L851.781 494.527V514H844.711V484.918H853.422L859.965 499.508L866.488 484.918H875.199V514ZM909.516 514H901.762L899.75 508.121H888.969L886.957 514H879.398L890.141 484.918H898.773L909.516 514ZM897.934 502.789L894.359 492.359L890.785 502.789H897.934ZM929.418 514H912.387V508.844H917.152V490.074H912.387V484.918H929.418V490.074H924.652V508.844H929.418V514ZM961.977 514H954.75L942.406 494.039V514H935.531V484.918H944.496L955.102 501.578V484.918H961.977V514Z" fill="black"/>
<rect y="890" width="1440" height="134" fill="#D9D9D9"/>
<path d="M650.551 949.543H637.172V954.953H649.574V960.578H637.172V973H629.711V943.918H650.551V949.543ZM684.008 958.469C684.008 963.104 682.68 966.789 680.023 969.523C677.367 972.245 673.695 973.605 669.008 973.605C664.333 973.605 660.668 972.245 658.012 969.523C655.355 966.789 654.027 963.104 654.027 958.469C654.027 953.794 655.355 950.103 658.012 947.395C660.668 944.673 664.333 943.312 669.008 943.312C673.669 943.312 677.335 944.673 680.004 947.395C682.673 950.103 684.008 953.794 684.008 958.469ZM674.066 965.832C674.796 964.947 675.336 963.905 675.688 962.707C676.039 961.496 676.215 960.077 676.215 958.449C676.215 956.704 676.013 955.22 675.609 953.996C675.206 952.772 674.678 951.783 674.027 951.027C673.363 950.246 672.595 949.68 671.723 949.328C670.863 948.977 669.965 948.801 669.027 948.801C668.077 948.801 667.178 948.97 666.332 949.309C665.499 949.647 664.73 950.207 664.027 950.988C663.376 951.717 662.842 952.727 662.426 954.016C662.022 955.292 661.82 956.776 661.82 958.469C661.82 960.201 662.016 961.678 662.406 962.902C662.81 964.113 663.337 965.103 663.988 965.871C664.639 966.639 665.401 967.206 666.273 967.57C667.146 967.935 668.064 968.117 669.027 968.117C669.991 968.117 670.909 967.935 671.781 967.57C672.654 967.193 673.415 966.613 674.066 965.832ZM718.031 958.469C718.031 963.104 716.703 966.789 714.047 969.523C711.391 972.245 707.719 973.605 703.031 973.605C698.357 973.605 694.691 972.245 692.035 969.523C689.379 966.789 688.051 963.104 688.051 958.469C688.051 953.794 689.379 950.103 692.035 947.395C694.691 944.673 698.357 943.312 703.031 943.312C707.693 943.312 711.358 944.673 714.027 947.395C716.697 950.103 718.031 953.794 718.031 958.469ZM708.09 965.832C708.819 964.947 709.359 963.905 709.711 962.707C710.062 961.496 710.238 960.077 710.238 958.449C710.238 956.704 710.036 955.22 709.633 953.996C709.229 952.772 708.702 951.783 708.051 951.027C707.387 950.246 706.618 949.68 705.746 949.328C704.887 948.977 703.988 948.801 703.051 948.801C702.1 948.801 701.202 948.97 700.355 949.309C699.522 949.647 698.754 950.207 698.051 950.988C697.4 951.717 696.866 952.727 696.449 954.016C696.046 955.292 695.844 956.776 695.844 958.469C695.844 960.201 696.039 961.678 696.43 962.902C696.833 964.113 697.361 965.103 698.012 965.871C698.663 966.639 699.424 967.206 700.297 967.57C701.169 967.935 702.087 968.117 703.051 968.117C704.014 968.117 704.932 967.935 705.805 967.57C706.677 967.193 707.439 966.613 708.09 965.832ZM746.527 949.543H737.445V973H729.945V949.543H720.863V943.918H746.527V949.543ZM772.074 973H751.039V943.918H772.074V949.543H758.5V954.562H771.098V960.188H758.5V967.375H772.074V973ZM794.691 952.824C794.691 952.095 794.542 951.47 794.242 950.949C793.943 950.428 793.428 950.018 792.699 949.719C792.191 949.51 791.599 949.387 790.922 949.348C790.245 949.296 789.457 949.27 788.559 949.27H785.844V957.102H788.148C789.346 957.102 790.349 957.043 791.156 956.926C791.964 956.809 792.641 956.542 793.188 956.125C793.708 955.721 794.086 955.279 794.32 954.797C794.568 954.302 794.691 953.645 794.691 952.824ZM806.391 973H797.23L789.301 962.336H785.844V973H778.383V943.918H790.961C792.68 943.918 794.158 944.016 795.395 944.211C796.632 944.406 797.79 944.829 798.871 945.48C799.965 946.132 800.831 946.978 801.469 948.02C802.12 949.048 802.445 950.344 802.445 951.906C802.445 954.055 801.944 955.806 800.941 957.16C799.952 958.514 798.533 959.641 796.684 960.539L806.391 973Z" fill="black"/>
</g>
<defs>
<clipPath id="clip0_101_198">
<rect width="1440" height="1024" fill="white"/>
</clipPath>
</defs>
</svg>
