<svg width="1440" height="1024" viewBox="0 0 1440 1024" fill="none" xmlns="http://www.w3.org/2000/svg">
<g clip-path="url(#clip0_33_21)">
<rect width="1440" height="1024" fill="white"/>
<rect width="1440" height="143" fill="#D9D9D9"/>
<path d="M655.785 92H648.285V79.1875H637.211V92H629.711V62.918H637.211V73.5625H648.285V62.918H655.785V92ZM684.262 92H663.227V62.918H684.262V68.543H670.688V73.5625H683.285V79.1875H670.688V86.375H684.262V92ZM717.445 92H709.691L707.68 86.1211H696.898L694.887 92H687.328L698.07 62.918H706.703L717.445 92ZM705.863 80.7891L702.289 70.3594L698.715 80.7891H705.863ZM749.105 77.4883C749.105 80.1966 748.487 82.625 747.25 84.7734C746.013 86.9089 744.451 88.5495 742.562 89.6953C741.143 90.5547 739.587 91.1536 737.895 91.4922C736.202 91.8307 734.197 92 731.879 92H721.625V62.918H732.172C734.542 62.918 736.586 63.1198 738.305 63.5234C740.023 63.9141 741.469 64.474 742.641 65.2031C744.646 66.4271 746.221 68.0807 747.367 70.1641C748.526 72.2344 749.105 74.6758 749.105 77.4883ZM741.352 77.4297C741.352 75.5156 741 73.8815 740.297 72.5273C739.607 71.1602 738.507 70.0924 736.996 69.3242C736.228 68.9466 735.44 68.6927 734.633 68.5625C733.839 68.4193 732.634 68.3477 731.02 68.3477H729.125V86.5508H731.02C732.803 86.5508 734.112 86.4727 734.945 86.3164C735.779 86.1471 736.592 85.8477 737.387 85.418C738.754 84.6367 739.757 83.5951 740.395 82.293C741.033 80.9779 741.352 79.3568 741.352 77.4297ZM775.863 92H754.828V62.918H775.863V68.543H762.289V73.5625H774.887V79.1875H762.289V86.375H775.863V92ZM798.48 71.8242C798.48 71.0951 798.331 70.4701 798.031 69.9492C797.732 69.4284 797.217 69.0182 796.488 68.7188C795.98 68.5104 795.388 68.3867 794.711 68.3477C794.034 68.2956 793.246 68.2695 792.348 68.2695H789.633V76.1016H791.938C793.135 76.1016 794.138 76.043 794.945 75.9258C795.753 75.8086 796.43 75.5417 796.977 75.125C797.497 74.7214 797.875 74.2786 798.109 73.7969C798.357 73.3021 798.48 72.6445 798.48 71.8242ZM810.18 92H801.02L793.09 81.3359H789.633V92H782.172V62.918H794.75C796.469 62.918 797.947 63.0156 799.184 63.2109C800.421 63.4062 801.579 63.8294 802.66 64.4805C803.754 65.1315 804.62 65.9779 805.258 67.0195C805.909 68.0482 806.234 69.3438 806.234 70.9062C806.234 73.0547 805.733 74.806 804.73 76.1602C803.741 77.5143 802.322 78.6406 800.473 79.5391L810.18 92Z" fill="black"/>
<rect x="23" y="160" width="1398" height="705" fill="#D9D9D9"/>
<path d="M705.199 514H697.738V494.527L692.348 507.164H687.172L681.781 494.527V514H674.711V484.918H683.422L689.965 499.508L696.488 484.918H705.199V514ZM739.516 514H731.762L729.75 508.121H718.969L716.957 514H709.398L720.141 484.918H728.773L739.516 514ZM727.934 502.789L724.359 492.359L720.785 502.789H727.934ZM759.418 514H742.387V508.844H747.152V490.074H742.387V484.918H759.418V490.074H754.652V508.844H759.418V514ZM791.977 514H784.75L772.406 494.039V514H765.531V484.918H774.496L785.102 501.578V484.918H791.977V514Z" fill="black"/>
<rect x="1" y="890" width="1440" height="134" fill="#D9D9D9"/>
<path d="M655.551 949.543H642.172V954.953H654.574V960.578H642.172V973H634.711V943.918H655.551V949.543ZM689.008 958.469C689.008 963.104 687.68 966.789 685.023 969.523C682.367 972.245 678.695 973.605 674.008 973.605C669.333 973.605 665.668 972.245 663.012 969.523C660.355 966.789 659.027 963.104 659.027 958.469C659.027 953.794 660.355 950.103 663.012 947.395C665.668 944.673 669.333 943.312 674.008 943.312C678.669 943.312 682.335 944.673 685.004 947.395C687.673 950.103 689.008 953.794 689.008 958.469ZM679.066 965.832C679.796 964.947 680.336 963.905 680.688 962.707C681.039 961.496 681.215 960.077 681.215 958.449C681.215 956.704 681.013 955.22 680.609 953.996C680.206 952.772 679.678 951.783 679.027 951.027C678.363 950.246 677.595 949.68 676.723 949.328C675.863 948.977 674.965 948.801 674.027 948.801C673.077 948.801 672.178 948.97 671.332 949.309C670.499 949.647 669.73 950.207 669.027 950.988C668.376 951.717 667.842 952.727 667.426 954.016C667.022 955.292 666.82 956.776 666.82 958.469C666.82 960.201 667.016 961.678 667.406 962.902C667.81 964.113 668.337 965.103 668.988 965.871C669.639 966.639 670.401 967.206 671.273 967.57C672.146 967.935 673.064 968.117 674.027 968.117C674.991 968.117 675.909 967.935 676.781 967.57C677.654 967.193 678.415 966.613 679.066 965.832ZM723.031 958.469C723.031 963.104 721.703 966.789 719.047 969.523C716.391 972.245 712.719 973.605 708.031 973.605C703.357 973.605 699.691 972.245 697.035 969.523C694.379 966.789 693.051 963.104 693.051 958.469C693.051 953.794 694.379 950.103 697.035 947.395C699.691 944.673 703.357 943.312 708.031 943.312C712.693 943.312 716.358 944.673 719.027 947.395C721.697 950.103 723.031 953.794 723.031 958.469ZM713.09 965.832C713.819 964.947 714.359 963.905 714.711 962.707C715.062 961.496 715.238 960.077 715.238 958.449C715.238 956.704 715.036 955.22 714.633 953.996C714.229 952.772 713.702 951.783 713.051 951.027C712.387 950.246 711.618 949.68 710.746 949.328C709.887 948.977 708.988 948.801 708.051 948.801C707.1 948.801 706.202 948.97 705.355 949.309C704.522 949.647 703.754 950.207 703.051 950.988C702.4 951.717 701.866 952.727 701.449 954.016C701.046 955.292 700.844 956.776 700.844 958.469C700.844 960.201 701.039 961.678 701.43 962.902C701.833 964.113 702.361 965.103 703.012 965.871C703.663 966.639 704.424 967.206 705.297 967.57C706.169 967.935 707.087 968.117 708.051 968.117C709.014 968.117 709.932 967.935 710.805 967.57C711.677 967.193 712.439 966.613 713.09 965.832ZM751.527 949.543H742.445V973H734.945V949.543H725.863V943.918H751.527V949.543ZM777.074 973H756.039V943.918H777.074V949.543H763.5V954.562H776.098V960.188H763.5V967.375H777.074V973ZM799.691 952.824C799.691 952.095 799.542 951.47 799.242 950.949C798.943 950.428 798.428 950.018 797.699 949.719C797.191 949.51 796.599 949.387 795.922 949.348C795.245 949.296 794.457 949.27 793.559 949.27H790.844V957.102H793.148C794.346 957.102 795.349 957.043 796.156 956.926C796.964 956.809 797.641 956.542 798.188 956.125C798.708 955.721 799.086 955.279 799.32 954.797C799.568 954.302 799.691 953.645 799.691 952.824ZM811.391 973H802.23L794.301 962.336H790.844V973H783.383V943.918H795.961C797.68 943.918 799.158 944.016 800.395 944.211C801.632 944.406 802.79 944.829 803.871 945.48C804.965 946.132 805.831 946.978 806.469 948.02C807.12 949.048 807.445 950.344 807.445 951.906C807.445 954.055 806.944 955.806 805.941 957.16C804.952 958.514 803.533 959.641 801.684 960.539L811.391 973Z" fill="black"/>
</g>
<defs>
<clipPath id="clip0_33_21">
<rect width="1440" height="1024" fill="white"/>
</clipPath>
</defs>
</svg>
