<svg width="1440" height="1024" viewBox="0 0 1440 1024" fill="none" xmlns="http://www.w3.org/2000/svg">
<g clip-path="url(#clip0_19_19)">
<rect width="1440" height="1024" fill="white"/>
<rect width="1440" height="143" fill="#D9D9D9"/>
<path d="M655.785 92H648.285V79.1875H637.211V92H629.711V62.918H637.211V73.5625H648.285V62.918H655.785V92ZM684.262 92H663.227V62.918H684.262V68.543H670.688V73.5625H683.285V79.1875H670.688V86.375H684.262V92ZM717.445 92H709.691L707.68 86.1211H696.898L694.887 92H687.328L698.07 62.918H706.703L717.445 92ZM705.863 80.7891L702.289 70.3594L698.715 80.7891H705.863ZM749.105 77.4883C749.105 80.1966 748.487 82.625 747.25 84.7734C746.013 86.9089 744.451 88.5495 742.562 89.6953C741.143 90.5547 739.587 91.1536 737.895 91.4922C736.202 91.8307 734.197 92 731.879 92H721.625V62.918H732.172C734.542 62.918 736.586 63.1198 738.305 63.5234C740.023 63.9141 741.469 64.474 742.641 65.2031C744.646 66.4271 746.221 68.0807 747.367 70.1641C748.526 72.2344 749.105 74.6758 749.105 77.4883ZM741.352 77.4297C741.352 75.5156 741 73.8815 740.297 72.5273C739.607 71.1602 738.507 70.0924 736.996 69.3242C736.228 68.9466 735.44 68.6927 734.633 68.5625C733.839 68.4193 732.634 68.3477 731.02 68.3477H729.125V86.5508H731.02C732.803 86.5508 734.112 86.4727 734.945 86.3164C735.779 86.1471 736.592 85.8477 737.387 85.418C738.754 84.6367 739.757 83.5951 740.395 82.293C741.033 80.9779 741.352 79.3568 741.352 77.4297ZM775.863 92H754.828V62.918H775.863V68.543H762.289V73.5625H774.887V79.1875H762.289V86.375H775.863V92ZM798.48 71.8242C798.48 71.0951 798.331 70.4701 798.031 69.9492C797.732 69.4284 797.217 69.0182 796.488 68.7188C795.98 68.5104 795.388 68.3867 794.711 68.3477C794.034 68.2956 793.246 68.2695 792.348 68.2695H789.633V76.1016H791.938C793.135 76.1016 794.138 76.043 794.945 75.9258C795.753 75.8086 796.43 75.5417 796.977 75.125C797.497 74.7214 797.875 74.2786 798.109 73.7969C798.357 73.3021 798.48 72.6445 798.48 71.8242ZM810.18 92H801.02L793.09 81.3359H789.633V92H782.172V62.918H794.75C796.469 62.918 797.947 63.0156 799.184 63.2109C800.421 63.4062 801.579 63.8294 802.66 64.4805C803.754 65.1315 804.62 65.9779 805.258 67.0195C805.909 68.0482 806.234 69.3438 806.234 70.9062C806.234 73.0547 805.733 74.806 804.73 76.1602C803.741 77.5143 802.322 78.6406 800.473 79.5391L810.18 92Z" fill="black"/>
<rect y="890" width="1440" height="134" fill="#D9D9D9"/>
<rect x="1136" y="40" width="100" height="100" fill="#D9D9D9"/>
<path d="M654.551 949.543H641.172V954.953H653.574V960.578H641.172V973H633.711V943.918H654.551V949.543ZM688.008 958.469C688.008 963.104 686.68 966.789 684.023 969.523C681.367 972.245 677.695 973.605 673.008 973.605C668.333 973.605 664.668 972.245 662.012 969.523C659.355 966.789 658.027 963.104 658.027 958.469C658.027 953.794 659.355 950.103 662.012 947.395C664.668 944.673 668.333 943.312 673.008 943.312C677.669 943.312 681.335 944.673 684.004 947.395C686.673 950.103 688.008 953.794 688.008 958.469ZM678.066 965.832C678.796 964.947 679.336 963.905 679.688 962.707C680.039 961.496 680.215 960.077 680.215 958.449C680.215 956.704 680.013 955.22 679.609 953.996C679.206 952.772 678.678 951.783 678.027 951.027C677.363 950.246 676.595 949.68 675.723 949.328C674.863 948.977 673.965 948.801 673.027 948.801C672.077 948.801 671.178 948.97 670.332 949.309C669.499 949.647 668.73 950.207 668.027 950.988C667.376 951.717 666.842 952.727 666.426 954.016C666.022 955.292 665.82 956.776 665.82 958.469C665.82 960.201 666.016 961.678 666.406 962.902C666.81 964.113 667.337 965.103 667.988 965.871C668.639 966.639 669.401 967.206 670.273 967.57C671.146 967.935 672.064 968.117 673.027 968.117C673.991 968.117 674.909 967.935 675.781 967.57C676.654 967.193 677.415 966.613 678.066 965.832ZM722.031 958.469C722.031 963.104 720.703 966.789 718.047 969.523C715.391 972.245 711.719 973.605 707.031 973.605C702.357 973.605 698.691 972.245 696.035 969.523C693.379 966.789 692.051 963.104 692.051 958.469C692.051 953.794 693.379 950.103 696.035 947.395C698.691 944.673 702.357 943.312 707.031 943.312C711.693 943.312 715.358 944.673 718.027 947.395C720.697 950.103 722.031 953.794 722.031 958.469ZM712.09 965.832C712.819 964.947 713.359 963.905 713.711 962.707C714.062 961.496 714.238 960.077 714.238 958.449C714.238 956.704 714.036 955.22 713.633 953.996C713.229 952.772 712.702 951.783 712.051 951.027C711.387 950.246 710.618 949.68 709.746 949.328C708.887 948.977 707.988 948.801 707.051 948.801C706.1 948.801 705.202 948.97 704.355 949.309C703.522 949.647 702.754 950.207 702.051 950.988C701.4 951.717 700.866 952.727 700.449 954.016C700.046 955.292 699.844 956.776 699.844 958.469C699.844 960.201 700.039 961.678 700.43 962.902C700.833 964.113 701.361 965.103 702.012 965.871C702.663 966.639 703.424 967.206 704.297 967.57C705.169 967.935 706.087 968.117 707.051 968.117C708.014 968.117 708.932 967.935 709.805 967.57C710.677 967.193 711.439 966.613 712.09 965.832ZM750.527 949.543H741.445V973H733.945V949.543H724.863V943.918H750.527V949.543ZM776.074 973H755.039V943.918H776.074V949.543H762.5V954.562H775.098V960.188H762.5V967.375H776.074V973ZM798.691 952.824C798.691 952.095 798.542 951.47 798.242 950.949C797.943 950.428 797.428 950.018 796.699 949.719C796.191 949.51 795.599 949.387 794.922 949.348C794.245 949.296 793.457 949.27 792.559 949.27H789.844V957.102H792.148C793.346 957.102 794.349 957.043 795.156 956.926C795.964 956.809 796.641 956.542 797.188 956.125C797.708 955.721 798.086 955.279 798.32 954.797C798.568 954.302 798.691 953.645 798.691 952.824ZM810.391 973H801.23L793.301 962.336H789.844V973H782.383V943.918H794.961C796.68 943.918 798.158 944.016 799.395 944.211C800.632 944.406 801.79 944.829 802.871 945.48C803.965 946.132 804.831 946.978 805.469 948.02C806.12 949.048 806.445 950.344 806.445 951.906C806.445 954.055 805.944 955.806 804.941 957.16C803.952 958.514 802.533 959.641 800.684 960.539L810.391 973Z" fill="black"/>
<rect x="22" y="161" width="364" height="705" fill="#D9D9D9"/>
<rect x="404" y="159" width="1009" height="705" fill="#D9D9D9"/>
<path d="M867.199 513H859.738V493.527L854.348 506.164H849.172L843.781 493.527V513H836.711V483.918H845.422L851.965 498.508L858.488 483.918H867.199V513ZM901.516 513H893.762L891.75 507.121H880.969L878.957 513H871.398L882.141 483.918H890.773L901.516 513ZM889.934 501.789L886.359 491.359L882.785 501.789H889.934ZM921.418 513H904.387V507.844H909.152V489.074H904.387V483.918H921.418V489.074H916.652V507.844H921.418V513ZM953.977 513H946.75L934.406 493.039V513H927.531V483.918H936.496L947.102 500.578V483.918H953.977V513Z" fill="black"/>
<path d="M97.9922 503.859C97.9922 506.724 96.7747 509.055 94.3398 510.852C91.918 512.635 88.6237 513.527 84.457 513.527C82.0482 513.527 79.9453 513.319 78.1484 512.902C76.3646 512.473 74.6914 511.932 73.1289 511.281V504.309H73.9492C75.4987 505.546 77.2305 506.496 79.1445 507.16C81.0716 507.824 82.9206 508.156 84.6914 508.156C85.1471 508.156 85.7461 508.117 86.4883 508.039C87.2305 507.961 87.8359 507.831 88.3047 507.648C88.8776 507.414 89.3464 507.121 89.7109 506.77C90.0885 506.418 90.2773 505.897 90.2773 505.207C90.2773 504.569 90.0039 504.022 89.457 503.566C88.9232 503.098 88.1354 502.74 87.0938 502.492C86 502.232 84.8411 501.991 83.6172 501.77C82.4062 501.535 81.2669 501.242 80.1992 500.891C77.7513 500.096 75.987 499.022 74.9062 497.668C73.8385 496.301 73.3047 494.608 73.3047 492.59C73.3047 489.882 74.5156 487.674 76.9375 485.969C79.3724 484.25 82.4974 483.391 86.3125 483.391C88.2266 483.391 90.1146 483.579 91.9766 483.957C93.8516 484.322 95.4727 484.784 96.8398 485.344V492.043H96.0391C94.8672 491.105 93.4284 490.324 91.7227 489.699C90.0299 489.061 88.2982 488.742 86.5273 488.742C85.9023 488.742 85.2773 488.788 84.6523 488.879C84.0404 488.957 83.4479 489.113 82.875 489.348C82.3672 489.543 81.931 489.842 81.5664 490.246C81.2018 490.637 81.0195 491.086 81.0195 491.594C81.0195 492.362 81.3125 492.954 81.8984 493.371C82.4844 493.775 83.5911 494.146 85.2188 494.484C86.2865 494.706 87.3086 494.921 88.2852 495.129C89.2747 495.337 90.3359 495.624 91.4688 495.988C93.6953 496.717 95.3359 497.714 96.3906 498.977C97.4583 500.227 97.9922 501.854 97.9922 503.859ZM118.871 513H101.84V507.844H106.605V489.074H101.84V483.918H118.871V489.074H114.105V507.844H118.871V513ZM152.465 498.488C152.465 501.197 151.846 503.625 150.609 505.773C149.372 507.909 147.81 509.549 145.922 510.695C144.503 511.555 142.947 512.154 141.254 512.492C139.561 512.831 137.556 513 135.238 513H124.984V483.918H135.531C137.901 483.918 139.945 484.12 141.664 484.523C143.383 484.914 144.828 485.474 146 486.203C148.005 487.427 149.581 489.081 150.727 491.164C151.885 493.234 152.465 495.676 152.465 498.488ZM144.711 498.43C144.711 496.516 144.359 494.882 143.656 493.527C142.966 492.16 141.866 491.092 140.355 490.324C139.587 489.947 138.799 489.693 137.992 489.562C137.198 489.419 135.993 489.348 134.379 489.348H132.484V507.551H134.379C136.163 507.551 137.471 507.473 138.305 507.316C139.138 507.147 139.952 506.848 140.746 506.418C142.113 505.637 143.116 504.595 143.754 503.293C144.392 501.978 144.711 500.357 144.711 498.43ZM179.223 513H158.188V483.918H179.223V489.543H165.648V494.562H178.246V500.188H165.648V507.375H179.223V513ZM210.414 504.094C210.414 505.5 210.128 506.757 209.555 507.863C208.995 508.97 208.22 509.888 207.23 510.617C206.085 511.477 204.822 512.089 203.441 512.453C202.074 512.818 200.336 513 198.227 513H185.531V483.918H196.82C199.164 483.918 200.876 483.996 201.957 484.152C203.051 484.309 204.132 484.654 205.199 485.188C206.306 485.747 207.126 486.503 207.66 487.453C208.207 488.391 208.48 489.465 208.48 490.676C208.48 492.082 208.109 493.326 207.367 494.406C206.625 495.474 205.577 496.307 204.223 496.906V497.062C206.124 497.44 207.628 498.221 208.734 499.406C209.854 500.591 210.414 502.154 210.414 504.094ZM200.805 492.141C200.805 491.659 200.681 491.177 200.434 490.695C200.199 490.214 199.776 489.855 199.164 489.621C198.617 489.413 197.934 489.302 197.113 489.289C196.306 489.263 195.167 489.25 193.695 489.25H192.992V495.402H194.164C195.349 495.402 196.358 495.383 197.191 495.344C198.025 495.305 198.682 495.174 199.164 494.953C199.841 494.654 200.284 494.27 200.492 493.801C200.701 493.319 200.805 492.766 200.805 492.141ZM202.641 503.977C202.641 503.052 202.458 502.342 202.094 501.848C201.742 501.34 201.137 500.962 200.277 500.715C199.691 500.546 198.884 500.454 197.855 500.441C196.827 500.428 195.753 500.422 194.633 500.422H192.992V507.668H193.539C195.648 507.668 197.159 507.661 198.07 507.648C198.982 507.635 199.822 507.466 200.59 507.141C201.371 506.815 201.905 506.385 202.191 505.852C202.491 505.305 202.641 504.68 202.641 503.977ZM242.875 513H235.121L233.109 507.121H222.328L220.316 513H212.758L223.5 483.918H232.133L242.875 513ZM231.293 501.789L227.719 491.359L224.145 501.789H231.293ZM263.363 492.824C263.363 492.095 263.214 491.47 262.914 490.949C262.615 490.428 262.1 490.018 261.371 489.719C260.863 489.51 260.271 489.387 259.594 489.348C258.917 489.296 258.129 489.27 257.23 489.27H254.516V497.102H256.82C258.018 497.102 259.021 497.043 259.828 496.926C260.635 496.809 261.312 496.542 261.859 496.125C262.38 495.721 262.758 495.279 262.992 494.797C263.24 494.302 263.363 493.645 263.363 492.824ZM275.062 513H265.902L257.973 502.336H254.516V513H247.055V483.918H259.633C261.352 483.918 262.829 484.016 264.066 484.211C265.303 484.406 266.462 484.829 267.543 485.48C268.637 486.132 269.503 486.978 270.141 488.02C270.792 489.048 271.117 490.344 271.117 491.906C271.117 494.055 270.616 495.806 269.613 497.16C268.624 498.514 267.204 499.641 265.355 500.539L275.062 513Z" fill="black"/>
</g>
<defs>
<clipPath id="clip0_19_19">
<rect width="1440" height="1024" fill="white"/>
</clipPath>
</defs>
</svg>
