<svg width="1440" height="1024" viewBox="0 0 1440 1024" fill="none" xmlns="http://www.w3.org/2000/svg">
<g clip-path="url(#clip0_100_156)">
<rect width="1440" height="1024" fill="white"/>
<rect width="1440" height="143" fill="#D9D9D9"/>
<path d="M655.785 92H648.285V79.1875H637.211V92H629.711V62.918H637.211V73.5625H648.285V62.918H655.785V92ZM684.262 92H663.227V62.918H684.262V68.543H670.688V73.5625H683.285V79.1875H670.688V86.375H684.262V92ZM717.445 92H709.691L707.68 86.1211H696.898L694.887 92H687.328L698.07 62.918H706.703L717.445 92ZM705.863 80.7891L702.289 70.3594L698.715 80.7891H705.863ZM749.105 77.4883C749.105 80.1966 748.487 82.625 747.25 84.7734C746.013 86.9089 744.451 88.5495 742.562 89.6953C741.143 90.5547 739.587 91.1536 737.895 91.4922C736.202 91.8307 734.197 92 731.879 92H721.625V62.918H732.172C734.542 62.918 736.586 63.1198 738.305 63.5234C740.023 63.9141 741.469 64.474 742.641 65.2031C744.646 66.4271 746.221 68.0807 747.367 70.1641C748.526 72.2344 749.105 74.6758 749.105 77.4883ZM741.352 77.4297C741.352 75.5156 741 73.8815 740.297 72.5273C739.607 71.1602 738.507 70.0924 736.996 69.3242C736.228 68.9466 735.44 68.6927 734.633 68.5625C733.839 68.4193 732.634 68.3477 731.02 68.3477H729.125V86.5508H731.02C732.803 86.5508 734.112 86.4727 734.945 86.3164C735.779 86.1471 736.592 85.8477 737.387 85.418C738.754 84.6367 739.757 83.5951 740.395 82.293C741.033 80.9779 741.352 79.3568 741.352 77.4297ZM775.863 92H754.828V62.918H775.863V68.543H762.289V73.5625H774.887V79.1875H762.289V86.375H775.863V92ZM798.48 71.8242C798.48 71.0951 798.331 70.4701 798.031 69.9492C797.732 69.4284 797.217 69.0182 796.488 68.7188C795.98 68.5104 795.388 68.3867 794.711 68.3477C794.034 68.2956 793.246 68.2695 792.348 68.2695H789.633V76.1016H791.938C793.135 76.1016 794.138 76.043 794.945 75.9258C795.753 75.8086 796.43 75.5417 796.977 75.125C797.497 74.7214 797.875 74.2786 798.109 73.7969C798.357 73.3021 798.48 72.6445 798.48 71.8242ZM810.18 92H801.02L793.09 81.3359H789.633V92H782.172V62.918H794.75C796.469 62.918 797.947 63.0156 799.184 63.2109C800.421 63.4062 801.579 63.8294 802.66 64.4805C803.754 65.1315 804.62 65.9779 805.258 67.0195C805.909 68.0482 806.234 69.3438 806.234 70.9062C806.234 73.0547 805.733 74.806 804.73 76.1602C803.741 77.5143 802.322 78.6406 800.473 79.5391L810.18 92Z" fill="black"/>
<rect x="215" y="160" width="1009" height="705" fill="#D9D9D9"/>
<path d="M678.199 514H670.738V494.527L665.348 507.164H660.172L654.781 494.527V514H647.711V484.918H656.422L662.965 499.508L669.488 484.918H678.199V514ZM712.516 514H704.762L702.75 508.121H691.969L689.957 514H682.398L693.141 484.918H701.773L712.516 514ZM700.934 502.789L697.359 492.359L693.785 502.789H700.934ZM732.418 514H715.387V508.844H720.152V490.074H715.387V484.918H732.418V490.074H727.652V508.844H732.418V514ZM764.977 514H757.75L745.406 494.039V514H738.531V484.918H747.496L758.102 501.578V484.918H764.977V514Z" fill="black"/>
<rect y="890" width="1440" height="134" fill="#D9D9D9"/>
<path d="M668.551 951.543H655.172V956.953H667.574V962.578H655.172V975H647.711V945.918H668.551V951.543ZM702.008 960.469C702.008 965.104 700.68 968.789 698.023 971.523C695.367 974.245 691.695 975.605 687.008 975.605C682.333 975.605 678.668 974.245 676.012 971.523C673.355 968.789 672.027 965.104 672.027 960.469C672.027 955.794 673.355 952.103 676.012 949.395C678.668 946.673 682.333 945.312 687.008 945.312C691.669 945.312 695.335 946.673 698.004 949.395C700.673 952.103 702.008 955.794 702.008 960.469ZM692.066 967.832C692.796 966.947 693.336 965.905 693.688 964.707C694.039 963.496 694.215 962.077 694.215 960.449C694.215 958.704 694.013 957.22 693.609 955.996C693.206 954.772 692.678 953.783 692.027 953.027C691.363 952.246 690.595 951.68 689.723 951.328C688.863 950.977 687.965 950.801 687.027 950.801C686.077 950.801 685.178 950.97 684.332 951.309C683.499 951.647 682.73 952.207 682.027 952.988C681.376 953.717 680.842 954.727 680.426 956.016C680.022 957.292 679.82 958.776 679.82 960.469C679.82 962.201 680.016 963.678 680.406 964.902C680.81 966.113 681.337 967.103 681.988 967.871C682.639 968.639 683.401 969.206 684.273 969.57C685.146 969.935 686.064 970.117 687.027 970.117C687.991 970.117 688.909 969.935 689.781 969.57C690.654 969.193 691.415 968.613 692.066 967.832ZM736.031 960.469C736.031 965.104 734.703 968.789 732.047 971.523C729.391 974.245 725.719 975.605 721.031 975.605C716.357 975.605 712.691 974.245 710.035 971.523C707.379 968.789 706.051 965.104 706.051 960.469C706.051 955.794 707.379 952.103 710.035 949.395C712.691 946.673 716.357 945.312 721.031 945.312C725.693 945.312 729.358 946.673 732.027 949.395C734.697 952.103 736.031 955.794 736.031 960.469ZM726.09 967.832C726.819 966.947 727.359 965.905 727.711 964.707C728.062 963.496 728.238 962.077 728.238 960.449C728.238 958.704 728.036 957.22 727.633 955.996C727.229 954.772 726.702 953.783 726.051 953.027C725.387 952.246 724.618 951.68 723.746 951.328C722.887 950.977 721.988 950.801 721.051 950.801C720.1 950.801 719.202 950.97 718.355 951.309C717.522 951.647 716.754 952.207 716.051 952.988C715.4 953.717 714.866 954.727 714.449 956.016C714.046 957.292 713.844 958.776 713.844 960.469C713.844 962.201 714.039 963.678 714.43 964.902C714.833 966.113 715.361 967.103 716.012 967.871C716.663 968.639 717.424 969.206 718.297 969.57C719.169 969.935 720.087 970.117 721.051 970.117C722.014 970.117 722.932 969.935 723.805 969.57C724.677 969.193 725.439 968.613 726.09 967.832ZM764.527 951.543H755.445V975H747.945V951.543H738.863V945.918H764.527V951.543ZM790.074 975H769.039V945.918H790.074V951.543H776.5V956.562H789.098V962.188H776.5V969.375H790.074V975ZM812.691 954.824C812.691 954.095 812.542 953.47 812.242 952.949C811.943 952.428 811.428 952.018 810.699 951.719C810.191 951.51 809.599 951.387 808.922 951.348C808.245 951.296 807.457 951.27 806.559 951.27H803.844V959.102H806.148C807.346 959.102 808.349 959.043 809.156 958.926C809.964 958.809 810.641 958.542 811.188 958.125C811.708 957.721 812.086 957.279 812.32 956.797C812.568 956.302 812.691 955.645 812.691 954.824ZM824.391 975H815.23L807.301 964.336H803.844V975H796.383V945.918H808.961C810.68 945.918 812.158 946.016 813.395 946.211C814.632 946.406 815.79 946.829 816.871 947.48C817.965 948.132 818.831 948.978 819.469 950.02C820.12 951.048 820.445 952.344 820.445 953.906C820.445 956.055 819.944 957.806 818.941 959.16C817.952 960.514 816.533 961.641 814.684 962.539L824.391 975Z" fill="black"/>
</g>
<defs>
<clipPath id="clip0_100_156">
<rect width="1440" height="1024" fill="white"/>
</clipPath>
</defs>
</svg>
